<?xml version="1.0" encoding="UTF-8" standalone="no"?>
<!DOCTYPE svg PUBLIC "-//W3C//DTD SVG 1.1//EN"
 "http://www.w3.org/Graphics/SVG/1.1/DTD/svg11.dtd">
<!-- Generated by graphviz version 14.0.0 (20250921.2048)
 -->
<!-- Title: mygraph Pages: 1 -->
<svg width="607pt" height="270pt"
 viewBox="0.00 0.00 607.00 270.00" xmlns="http://www.w3.org/2000/svg" xmlns:xlink="http://www.w3.org/1999/xlink">
<g id="graph0" class="graph" transform="scale(1 1) rotate(0) translate(4 266)">
<title>mygraph</title>
<polygon fill="white" stroke="none" points="-4,4 -4,-266 603.12,-266 603.12,4 -4,4"/>
<!-- //app:main -->
<g id="node1" class="node">
<title>//app:main</title>
<polygon fill="none" stroke="black" points="249.38,-262 174.88,-262 174.88,-226 249.38,-226 249.38,-262"/>
<text xml:space="preserve" text-anchor="middle" x="212.12" y="-238.95" font-family="Times,serif" font-size="14.00">//app:main</text>
</g>
<!-- //app:main.cc -->
<g id="node2" class="node">
<title>//app:main.cc</title>
<polygon fill="none" stroke="black" points="90.25,-190 0,-190 0,-154 90.25,-154 90.25,-190"/>
<text xml:space="preserve" text-anchor="middle" x="45.12" y="-166.95" font-family="Times,serif" font-size="14.00">//app:main.cc</text>
</g>
<!-- //app:main&#45;&gt;//app:main.cc -->
<g id="edge1" class="edge">
<title>//app:main&#45;&gt;//app:main.cc</title>
<path fill="none" stroke="black" d="M174.65,-227.29C151.76,-217.7 122.16,-205.29 97.04,-194.76"/>
<polygon fill="black" stroke="black" points="98.55,-191.6 87.98,-190.96 95.85,-198.06 98.55,-191.6"/>
</g>
<!-- //app:core -->
<g id="node3" class="node">
<title>//app:core</title>
<polygon fill="none" stroke="black" points="216.12,-190 146.12,-190 146.12,-154 216.12,-154 216.12,-190"/>
<text xml:space="preserve" text-anchor="middle" x="181.12" y="-166.95" font-family="Times,serif" font-size="14.00">//app:core</text>
</g>
<!-- //app:main&#45;&gt;//app:core -->
<g id="edge2" class="edge">
<title>//app:main&#45;&gt;//app:core</title>
<path fill="none" stroke="black" d="M204.46,-225.7C201.08,-218.07 197.03,-208.92 193.26,-200.4"/>
<polygon fill="black" stroke="black" points="196.56,-199.21 189.31,-191.49 190.16,-202.05 196.56,-199.21"/>
</g>
<!-- //app:utils -->
<g id="node4" class="node">
<title>//app:utils</title>
<polygon fill="none" stroke="black" points="87.12,-115.5 17.12,-115.5 17.12,-79.5 87.12,-79.5 87.12,-115.5"/>
<text xml:space="preserve" text-anchor="middle" x="52.12" y="-92.45" font-family="Times,serif" font-size="14.00">//app:utils</text>
</g>
<!-- //app:main&#45;&gt;//app:utils -->
<g id="edge3" class="edge">
<title>//app:main&#45;&gt;//app:utils</title>
<path fill="none" stroke="black" d="M184.74,-225.64C170.07,-215.86 152.01,-203.02 137.12,-190 113.84,-169.63 90.12,-143.55 73.67,-124.45"/>
<polygon fill="black" stroke="black" points="76.34,-122.19 67.19,-116.84 71.01,-126.73 76.34,-122.19"/>
</g>
<!-- //lib:string_utils -->
<g id="node5" class="node">
<title>//lib:string_utils</title>
<polygon fill="none" stroke="black" points="390.25,-190 288,-190 288,-154 390.25,-154 390.25,-190"/>
<text xml:space="preserve" text-anchor="middle" x="339.12" y="-166.95" font-family="Times,serif" font-size="14.00">//lib:string_utils</text>
</g>
<!-- //app:main&#45;&gt;//lib:string_utils -->
<g id="edge4" class="edge">
<title>//app:main&#45;&gt;//lib:string_utils</title>
<path fill="none" stroke="black" d="M243.84,-225.52C260.18,-216.51 280.3,-205.42 297.83,-195.76"/>
<polygon fill="black" stroke="black" points="299.42,-198.88 306.48,-190.99 296.04,-192.75 299.42,-198.88"/>
</g>
<!-- @rules_cc//:link_extra_lib -->
<g id="node6" class="node">
<title>@rules_cc//:link_extra_lib</title>
<polygon fill="none" stroke="black" points="582.5,-190 421.75,-190 421.75,-154 582.5,-154 582.5,-190"/>
<text xml:space="preserve" text-anchor="middle" x="502.12" y="-166.95" font-family="Times,serif" font-size="14.00">@rules_cc//:link_extra_lib</text>
</g>
<!-- //app:main&#45;&gt;@rules_cc//:link_extra_lib -->
<g id="edge5" class="edge">
<title>//app:main&#45;&gt;@rules_cc//:link_extra_lib</title>
<path fill="none" stroke="black" d="M249.74,-233.92C292.34,-223.64 363.07,-206.56 418.84,-193.1"/>
<polygon fill="black" stroke="black" points="419.41,-196.57 428.31,-190.82 417.77,-189.76 419.41,-196.57"/>
</g>
<!-- //lib:math -->
<g id="node7" class="node">
<title>//lib:math</title>
<polygon fill="none" stroke="black" points="278.75,-115.5 209.5,-115.5 209.5,-79.5 278.75,-79.5 278.75,-115.5"/>
<text xml:space="preserve" text-anchor="middle" x="244.12" y="-92.45" font-family="Times,serif" font-size="14.00">//lib:math</text>
</g>
<!-- //app:main&#45;&gt;//lib:math -->
<g id="edge6" class="edge">
<title>//app:main&#45;&gt;//lib:math</title>
<path fill="none" stroke="black" d="M216.5,-225.85C219.1,-215.49 222.41,-202.01 225.12,-190 229.89,-168.94 234.84,-145.05 238.49,-126.97"/>
<polygon fill="black" stroke="black" points="241.91,-127.72 240.44,-117.23 235.04,-126.34 241.91,-127.72"/>
</g>
<!-- //app:core&#45;&gt;//app:utils -->
<g id="edge10" class="edge">
<title>//app:core&#45;&gt;//app:utils</title>
<path fill="none" stroke="black" d="M150.23,-153.63C133.12,-144.02 111.64,-131.95 93.14,-121.55"/>
<polygon fill="black" stroke="black" points="94.97,-118.56 84.54,-116.72 91.54,-124.67 94.97,-118.56"/>
</g>
<!-- //app:core&#45;&gt;//lib:math -->
<g id="edge11" class="edge">
<title>//app:core&#45;&gt;//lib:math</title>
<path fill="none" stroke="black" d="M196.06,-153.82C203.74,-144.97 213.27,-134 221.82,-124.17"/>
<polygon fill="black" stroke="black" points="224.39,-126.54 228.31,-116.7 219.11,-121.95 224.39,-126.54"/>
</g>
<!-- //app:core.h\n//app:core.cc -->
<g id="node10" class="node">
<title>//app:core.h\n//app:core.cc</title>
<polygon fill="none" stroke="black" points="191,-118 105.25,-118 105.25,-77 191,-77 191,-118"/>
<text xml:space="preserve" text-anchor="middle" x="148.12" y="-100.7" font-family="Times,serif" font-size="14.00">//app:core.h</text>
<text xml:space="preserve" text-anchor="middle" x="148.12" y="-84.2" font-family="Times,serif" font-size="14.00">//app:core.cc</text>
</g>
<!-- //app:core&#45;&gt;//app:core.h\n//app:core.cc -->
<g id="edge9" class="edge">
<title>//app:core&#45;&gt;//app:core.h\n//app:core.cc</title>
<path fill="none" stroke="black" d="M173.3,-153.82C169.9,-146.34 165.81,-137.35 161.92,-128.81"/>
<polygon fill="black" stroke="black" points="165.13,-127.41 157.8,-119.76 158.76,-130.31 165.13,-127.41"/>
</g>
<!-- //app:utils.cc\n//app:utils.h -->
<g id="node12" class="node">
<title>//app:utils.cc\n//app:utils.h</title>
<polygon fill="none" stroke="black" points="95,-41 9.25,-41 9.25,0 95,0 95,-41"/>
<text xml:space="preserve" text-anchor="middle" x="52.12" y="-23.7" font-family="Times,serif" font-size="14.00">//app:utils.cc</text>
<text xml:space="preserve" text-anchor="middle" x="52.12" y="-7.2" font-family="Times,serif" font-size="14.00">//app:utils.h</text>
</g>
<!-- //app:utils&#45;&gt;//app:utils.cc\n//app:utils.h -->
<g id="edge13" class="edge">
<title>//app:utils&#45;&gt;//app:utils.cc\n//app:utils.h</title>
<path fill="none" stroke="black" d="M52.12,-79.1C52.12,-71.28 52.12,-61.8 52.12,-52.81"/>
<polygon fill="black" stroke="black" points="55.63,-52.96 52.13,-42.96 48.63,-52.96 55.63,-52.96"/>
</g>
<!-- //lib:string_utils.h\n//lib:string_utils.cc -->
<g id="node9" class="node">
<title>//lib:string_utils.h\n//lib:string_utils.cc</title>
<polygon fill="none" stroke="black" points="415.12,-118 297.12,-118 297.12,-77 415.12,-77 415.12,-118"/>
<text xml:space="preserve" text-anchor="middle" x="356.12" y="-100.7" font-family="Times,serif" font-size="14.00">//lib:string_utils.h</text>
<text xml:space="preserve" text-anchor="middle" x="356.12" y="-84.2" font-family="Times,serif" font-size="14.00">//lib:string_utils.cc</text>
</g>
<!-- //lib:string_utils&#45;&gt;//lib:string_utils.h\n//lib:string_utils.cc -->
<g id="edge8" class="edge">
<title>//lib:string_utils&#45;&gt;//lib:string_utils.h\n//lib:string_utils.cc</title>
<path fill="none" stroke="black" d="M343.15,-153.82C344.87,-146.51 346.92,-137.75 348.88,-129.38"/>
<polygon fill="black" stroke="black" points="352.24,-130.39 351.12,-119.85 345.43,-128.79 352.24,-130.39"/>
</g>
<!-- @rules_cc//:link_extra_libs -->
<g id="node8" class="node">
<title>@rules_cc//:link_extra_libs</title>
<polygon fill="none" stroke="black" points="599.12,-115.5 433.12,-115.5 433.12,-79.5 599.12,-79.5 599.12,-115.5"/>
<text xml:space="preserve" text-anchor="middle" x="516.12" y="-92.45" font-family="Times,serif" font-size="14.00">@rules_cc//:link_extra_libs</text>
</g>
<!-- @rules_cc//:link_extra_lib&#45;&gt;@rules_cc//:link_extra_libs -->
<g id="edge7" class="edge">
<title>@rules_cc//:link_extra_lib&#45;&gt;@rules_cc//:link_extra_libs</title>
<path fill="none" stroke="black" d="M505.44,-153.82C507.01,-145.69 508.93,-135.78 510.7,-126.6"/>
<polygon fill="black" stroke="black" points="514.08,-127.53 512.54,-117.04 507.21,-126.2 514.08,-127.53"/>
</g>
<!-- //lib:math.cc\n//lib:math.h -->
<g id="node11" class="node">
<title>//lib:math.cc\n//lib:math.h</title>
<polygon fill="none" stroke="black" points="286.62,-41 201.62,-41 201.62,0 286.62,0 286.62,-41"/>
<text xml:space="preserve" text-anchor="middle" x="244.12" y="-23.7" font-family="Times,serif" font-size="14.00">//lib:math.cc</text>
<text xml:space="preserve" text-anchor="middle" x="244.12" y="-7.2" font-family="Times,serif" font-size="14.00">//lib:math.h</text>
</g>
<!-- //lib:math&#45;&gt;//lib:math.cc\n//lib:math.h -->
<g id="edge12" class="edge">
<title>//lib:math&#45;&gt;//lib:math.cc\n//lib:math.h</title>
<path fill="none" stroke="black" d="M244.12,-79.1C244.12,-71.28 244.12,-61.8 244.12,-52.81"/>
<polygon fill="black" stroke="black" points="247.63,-52.96 244.13,-42.96 240.63,-52.96 247.63,-52.96"/>
</g>
</g>
</svg>
